<mxfile host="Electron" modified="2024-03-14T21:33:07.435Z" agent="Mozilla/5.0 (Windows NT 10.0; Win64; x64) AppleWebKit/537.36 (KHTML, like Gecko) draw.io/24.0.4 Chrome/120.0.6099.109 Electron/28.1.0 Safari/537.36" etag="TRm8EIeHLYqgzvOgj5Vs" version="24.0.4" type="device">
  <diagram name="PÃ¡gina-1" id="BowSVxFOfPAImJkvW4eo">
    <mxGraphModel dx="864" dy="508" grid="1" gridSize="10" guides="1" tooltips="1" connect="1" arrows="1" fold="1" page="0" pageScale="1" pageWidth="827" pageHeight="1169" math="0" shadow="0">
      <root>
        <mxCell id="0" />
        <mxCell id="1" parent="0" />
        <mxCell id="gxy9aYOONGU5AT2BH2EU-1" value="Agente" style="shape=umlActor;verticalLabelPosition=bottom;verticalAlign=top;html=1;outlineConnect=0;" parent="1" vertex="1">
          <mxGeometry x="160" y="190" width="30" height="60" as="geometry" />
        </mxCell>
        <mxCell id="gxy9aYOONGU5AT2BH2EU-7" style="edgeStyle=orthogonalEdgeStyle;rounded=0;orthogonalLoop=1;jettySize=auto;html=1;exitX=1;exitY=0.5;exitDx=0;exitDy=0;entryX=0;entryY=0.5;entryDx=0;entryDy=0;" parent="1" source="gxy9aYOONGU5AT2BH2EU-2" target="gxy9aYOONGU5AT2BH2EU-5" edge="1">
          <mxGeometry relative="1" as="geometry">
            <Array as="points">
              <mxPoint x="530" y="220" />
              <mxPoint x="530" y="220" />
            </Array>
          </mxGeometry>
        </mxCell>
        <mxCell id="OEEWYVXx2hu_bYfWYj0A-15" value="2. ConsultarEstado(patente)" style="edgeLabel;html=1;align=center;verticalAlign=middle;resizable=0;points=[];" parent="gxy9aYOONGU5AT2BH2EU-7" vertex="1" connectable="0">
          <mxGeometry x="-0.0235" y="-1" relative="1" as="geometry">
            <mxPoint y="-11" as="offset" />
          </mxGeometry>
        </mxCell>
        <mxCell id="gxy9aYOONGU5AT2BH2EU-2" value="&lt;u&gt;:PantallaDeConsultas&lt;/u&gt;" style="rounded=0;whiteSpace=wrap;html=1;" parent="1" vertex="1">
          <mxGeometry x="390" y="190" width="120" height="60" as="geometry" />
        </mxCell>
        <mxCell id="OEEWYVXx2hu_bYfWYj0A-1" style="edgeStyle=orthogonalEdgeStyle;rounded=0;orthogonalLoop=1;jettySize=auto;html=1;exitX=0;exitY=0.75;exitDx=0;exitDy=0;entryX=1;entryY=0.75;entryDx=0;entryDy=0;" parent="1" source="gxy9aYOONGU5AT2BH2EU-5" target="gxy9aYOONGU5AT2BH2EU-2" edge="1">
          <mxGeometry relative="1" as="geometry" />
        </mxCell>
        <mxCell id="OEEWYVXx2hu_bYfWYj0A-16" style="edgeStyle=orthogonalEdgeStyle;rounded=0;orthogonalLoop=1;jettySize=auto;html=1;exitX=0.75;exitY=1;exitDx=0;exitDy=0;entryX=0.75;entryY=0;entryDx=0;entryDy=0;" parent="1" source="gxy9aYOONGU5AT2BH2EU-5" target="gxy9aYOONGU5AT2BH2EU-6" edge="1">
          <mxGeometry relative="1" as="geometry" />
        </mxCell>
        <mxCell id="gxy9aYOONGU5AT2BH2EU-5" value="&lt;u&gt;:Gestor de Autos&lt;/u&gt;" style="rounded=0;whiteSpace=wrap;html=1;" parent="1" vertex="1">
          <mxGeometry x="680" y="190" width="120" height="60" as="geometry" />
        </mxCell>
        <mxCell id="OEEWYVXx2hu_bYfWYj0A-17" style="edgeStyle=orthogonalEdgeStyle;rounded=0;orthogonalLoop=1;jettySize=auto;html=1;exitX=0.25;exitY=0;exitDx=0;exitDy=0;entryX=0.25;entryY=1;entryDx=0;entryDy=0;" parent="1" source="gxy9aYOONGU5AT2BH2EU-6" target="gxy9aYOONGU5AT2BH2EU-5" edge="1">
          <mxGeometry relative="1" as="geometry" />
        </mxCell>
        <mxCell id="gxy9aYOONGU5AT2BH2EU-6" value="&lt;u&gt;:Auto&lt;/u&gt;" style="rounded=0;whiteSpace=wrap;html=1;" parent="1" vertex="1">
          <mxGeometry x="680" y="330" width="120" height="60" as="geometry" />
        </mxCell>
        <mxCell id="OEEWYVXx2hu_bYfWYj0A-2" value="5. Datos" style="text;html=1;align=center;verticalAlign=middle;resizable=0;points=[];autosize=1;strokeColor=none;fillColor=none;" parent="1" vertex="1">
          <mxGeometry x="555" y="240" width="70" height="30" as="geometry" />
        </mxCell>
        <mxCell id="OEEWYVXx2hu_bYfWYj0A-5" value="4. *Patente y estado de impuesto" style="text;html=1;align=center;verticalAlign=middle;resizable=0;points=[];autosize=1;strokeColor=none;fillColor=none;" parent="1" vertex="1">
          <mxGeometry x="520" y="283" width="200" height="30" as="geometry" />
        </mxCell>
        <mxCell id="OEEWYVXx2hu_bYfWYj0A-6" value="3. *Obtiene patente y estado de impuesto" style="text;html=1;align=center;verticalAlign=middle;resizable=0;points=[];autosize=1;strokeColor=none;fillColor=none;" parent="1" vertex="1">
          <mxGeometry x="770" y="283" width="240" height="30" as="geometry" />
        </mxCell>
        <mxCell id="OEEWYVXx2hu_bYfWYj0A-9" style="edgeStyle=orthogonalEdgeStyle;rounded=0;orthogonalLoop=1;jettySize=auto;html=1;exitX=0.75;exitY=0.1;exitDx=0;exitDy=0;exitPerimeter=0;entryX=0.008;entryY=0.117;entryDx=0;entryDy=0;entryPerimeter=0;" parent="1" source="gxy9aYOONGU5AT2BH2EU-1" target="gxy9aYOONGU5AT2BH2EU-2" edge="1">
          <mxGeometry relative="1" as="geometry" />
        </mxCell>
        <mxCell id="OEEWYVXx2hu_bYfWYj0A-14" value="1.ConsultarEstado (patente)" style="edgeLabel;html=1;align=center;verticalAlign=middle;resizable=0;points=[];" parent="OEEWYVXx2hu_bYfWYj0A-9" vertex="1" connectable="0">
          <mxGeometry x="-0.177" relative="1" as="geometry">
            <mxPoint x="16" as="offset" />
          </mxGeometry>
        </mxCell>
        <mxCell id="G1jsnZ8z4fGc-80P4Y7h-7" value="" style="endArrow=classic;html=1;rounded=0;" edge="1" parent="1">
          <mxGeometry width="50" height="50" relative="1" as="geometry">
            <mxPoint x="380" y="240" as="sourcePoint" />
            <mxPoint x="210" y="240" as="targetPoint" />
            <Array as="points">
              <mxPoint x="290" y="270" />
            </Array>
          </mxGeometry>
        </mxCell>
        <mxCell id="G1jsnZ8z4fGc-80P4Y7h-8" value="&lt;span style=&quot;font-size: 11px;&quot;&gt;[datos == null] 6.Mensaje de error&lt;/span&gt;" style="text;html=1;align=center;verticalAlign=middle;resizable=0;points=[];autosize=1;strokeColor=none;fillColor=none;" vertex="1" parent="1">
          <mxGeometry x="200" y="260" width="190" height="30" as="geometry" />
        </mxCell>
        <mxCell id="G1jsnZ8z4fGc-80P4Y7h-9" value="" style="endArrow=classic;html=1;rounded=0;" edge="1" parent="1">
          <mxGeometry width="50" height="50" relative="1" as="geometry">
            <mxPoint x="380" y="290" as="sourcePoint" />
            <mxPoint x="210" y="290" as="targetPoint" />
            <Array as="points">
              <mxPoint x="290" y="320" />
            </Array>
          </mxGeometry>
        </mxCell>
        <mxCell id="G1jsnZ8z4fGc-80P4Y7h-10" value="&lt;span style=&quot;font-size: 11px;&quot;&gt;[datos != NULL] 7.Muestra estado de impuesto&lt;/span&gt;" style="text;html=1;align=center;verticalAlign=middle;resizable=0;points=[];autosize=1;strokeColor=none;fillColor=none;" vertex="1" parent="1">
          <mxGeometry x="170" y="313" width="250" height="30" as="geometry" />
        </mxCell>
      </root>
    </mxGraphModel>
  </diagram>
</mxfile>
